# AST/ASF file generated using VICON BodyLanguage
# -----------------------------------------------
:version 1.10
:name VICON
:units
  mass 1.0
  length 0.45
  angle deg
:documentation
   .ast/.asf automatically generated from VICON data using
   VICON BodyBuilder and BodyLanguage model FoxedUp or BRILLIANT.MOD
:root
   order TX TY TZ RX RY RZ
   axis XYZ
   position 0 0 0  
   orientation 0 0 0 
:bonedata
  begin
     id 1 
     name lhipjoint
     direction 0.575328 -0.747301 0.332475 
     length 2.40933 
     axis 0 0 0  XYZ
  end
  begin
     id 2 
     name lfemur
     direction 0.34202 -0.939693 0  
     length 7.31453  
     axis 0 0 20  XYZ
    dof rx ry rz
    limits (-160.0 20.0)
           (-70.0 70.0)
           (-60.0 70.0)
  end
  begin
     id 3 
     name ltibia
     direction 0.34202 -0.939693 0   
     length 7.82185   
     axis 0 0 20   XYZ
    dof rx
    limits (-10.0 170.0)
  end
  begin
     id 4 
     name lfoot
     direction 0.0795993 -0.218697 0.972541   
     length 2.19173   
     axis -90 7.62852e-016 20   XYZ
    dof rx rz
    limits (-45.0 90.0)
           (-70.0 20.0)
  end
  begin
     id 5 
     name ltoes
     direction 1.53537e-011 -4.21894e-011 1   
     length 1.10023   
     axis -90 7.62852e-016 20   XYZ
    dof rx
    limits (-90.0 20.0)
  end
  begin
     id 6 
     name rhipjoint
     direction -0.513884 -0.783789 0.348708   
     length 2.29716  
     axis 0 0 0  XYZ 
  end
  begin
     id 7 
     name rfemur
     direction -0.34202 -0.939693 0   
     length 7.59573   
     axis 0 0 -20   XYZ
    dof rx ry rz
    limits (-160.0 20.0)
           (-70.0 70.0)
           (-70.0 60.0)
  end
  begin
     id 8 
     name rtibia
     direction -0.34202 -0.939693 0   
     length 7.66402   
     axis 0 0 -20   XYZ
    dof rx
    limits (-10.0 170.0)
 end
 begin
     id 9 
     name rfoot
     direction -0.137793 -0.378584 0.915253   
     length 2.27056  
     axis -90 -7.62852e-016 -20   XYZ
    dof rx rz
    limits (-45.0 90.0)
           (-20.0 70.0)
  end
  begin
     id 10 
     name rtoes
     direction -1.53493e-011 -4.22159e-011 1   
     length 1.11766   
     axis -90 -7.62852e-016 -20   XYZ
    dof rx
    limits (-90.0 20.0)
  end
  begin
     id 11 
     name lowerback
     direction -0.00732775 0.998356 -0.05685   
     length 2.16513   
     axis 0 0 0   XYZ
    dof rx ry rz
    limits (-20.0 45.0)
           (-30.0 30.0)
           (-30.0 30.0)
  end
  begin
     id 12 
     name upperback
     direction 0.0218081 0.999627 -0.0164647   
     length 2.16755   
     axis 0 0 0   XYZ
    dof rx ry rz
    limits (-20.0 45.0)
           (-30.0 30.0)
           (-30.0 30.0)
  end
  begin
     id 13 
     name thorax
     direction 0.02365 0.999661 0.0108914   
     length 2.16932   
     axis 0 0 0   XYZ
    dof rx ry rz
    limits (-20.0 45.0)
           (-30.0 30.0)
           (-30.0 30.0)
  end
  begin
     id 14 
     name lowerneck
     direction -0.0523929 0.978385 0.200044   
     length 1.63877   
     axis 0 0 0   XYZ
    dof rx ry rz
    limits (-20.0 45.0)
           (-30.0 30.0)
           (-30.0 30.0)
  end
  begin
     id 15 
     name upperneck
     direction 0.0448674 0.981321 -0.187074   
     length 1.69014   
     axis 0 0 0   XYZ
    dof rx ry rz
    limits (-20.0 45.0)
           (-30.0 30.0)
           (-30.0 30.0)
  end
  begin
     id 16
     name head
     direction 0.0199089 0.996118 -0.0857429  
     length 1.70094  
     axis 0 0 0   XYZ
    dof rx ry rz
    limits (-20.0 45.0)
           (-30.0 30.0)
           (-30.0 30.0)
  end
  begin
     id 17 
     name lclavicle
     direction 0.940366 0.30191 -0.156722  
     length 3.37521  
     axis 0 0 0   XYZ
    dof ry rz
    limits (-20.0 10.0)
           (0.0 20.0)
  end
  begin
     id 18 
     name lhumerus
     direction 1 -4.4897e-011 -1.7911e-027   
     length 5.25287   
     axis 180 -30 -90   XYZ
    dof rx ry rz
    limits (-60.0 90.0)
           (-90.0 90.0)
           (-90.0 90.0)
  end
  begin
     id 19
     name lradius
     direction 1 -4.48951e-011 1.04424e-027   
     length 3.51014   
     axis 180 -30 -90   XYZ
    dof rx
    limits (-10.0 170.0)
  end
  begin
     id 20
     name lwrist
     direction 1 -4.48997e-011 -9.5942e-028   
     length 1.75507   
     axis 8.48502e-016 90 90   XYZ
    dof ry
    limits (-180.0 0.0)
 end
  begin
     id 21 
     name lhand
     direction 1 -4.48831e-011 -1.90777e-027   
     length 0.706179   
     axis 1.22306e-015 90 90   XYZ
    dof rx rz
    limits (-90.0 90.0)
           (-45.0 45.0)
  end
  begin
     id 22 
     name lfingers
     direction 1 -4.49108e-011 -3.85244e-027   
     length 0.569339   
     axis 2.44611e-015 90 90   XYZ
    dof rx
    limits (0.0 90.0)
  end
  begin
     id 23
     name lthumb
     direction 0.707107 -6.34953e-011 0.707107   
     length 0.817461   
     axis -90 45 -1.62303e-014   XYZ
    dof rx rz
    limits (-45.0 45.0)
           (-45.0 45.0)
  end
  begin
     id 24 
     name rclavicle
     direction -0.905329 0.382405 -0.184787   
     length 3.30787  
     axis 0 0 0   XYZ 
    dof ry rz
    limits (-10.0 20.0)
           (-20.0 0.0)
  end
  begin
     id 25 
     name rhumerus
     direction -1 -4.48953e-011 -9.15316e-029  
     length 5.28721   
     axis 180 30 90   XYZ
    dof rx ry rz
    limits (-90.0 60.0)
           (-90.0 90.0)
           (-90.0 90.0)
  end
  begin
     id 26 
     name rradius
     direction -1 -4.48987e-011 9.37824e-028   
     length 3.50544   
     axis 180 30 90   XYZ
    dof rx
    limits (-10.0 170.0)
  end
  begin
     id 27 
     name rwrist
     direction -1 -4.48967e-011 -9.58414e-028   
     length 1.75272   
     axis 8.48502e-016 -90 -90   XYZ
    dof ry
    limits (-180.0 0.0)
  end
  begin
     id 28
     name rhand
     direction -1 -4.48904e-011 -1.91266e-027   
     length 0.884996   
     axis 1.22306e-015 -90 -90   XYZ
    dof rx rz
    limits (-90.0 90.0)
           (-45.0 45.0)
  end
  begin
     id 29
     name rfingers
     direction -1 -4.4909e-011 -3.85015e-027   
     length 0.713507   
     axis 2.44611e-015 -90 -90   XYZ
    dof rx
    limits (0.0 90.0)
  end
  begin
     id 30
     name rthumb
     direction -0.707107 -6.34853e-011 0.707107   
     length 1.02446   
     axis -90 -45 1.62303e-014   XYZ
    dof rx rz
    limits (-45.0 45.0)
           (-45.0 45.0)
  end
:hierarchy
  begin
    root lhipjoint rhipjoint lowerback
    lhipjoint lfemur
    lfemur ltibia
    ltibia lfoot
    lfoot ltoes
    rhipjoint rfemur
    rfemur rtibia
    rtibia rfoot
    rfoot rtoes
    lowerback upperback
    upperback thorax
    thorax lowerneck lclavicle rclavicle
    lowerneck upperneck
    upperneck head
    lclavicle lhumerus
    lhumerus lradius
    lradius lwrist
    lwrist lhand lthumb
    lhand lfingers
    rclavicle rhumerus
    rhumerus rradius
    rradius rwrist
    rwrist rhand rthumb
    rhand rfingers
  end

#!OML:ASF F:\twosubjects\two\Thursday\Session 1\justin.ASF
:FULLY-SPECIFIED
:DEGREES
135
root 20.5339 18.5605 3.92532 -3.91237 -83.1589 18.9309
lowerback 11.1049 -1.21444 0.730636
upperback 5.07957 -1.70785 5.0181
thorax -0.781025 -1.01216 5.021
lowerneck -15.1132 -1.31916 -11.4336
upperneck 36.3446 -3.19465 9.08969
head 15.662 -2.0846 5.31258
rclavicle 4.29375e-014 -7.63333e-014
rhumerus 51.3719 27.9626 -36.3379
rradius 54.1729
rwrist 2.99475
rhand -34.021 28.6377
rfingers 7.12502
rthumb -7.19979 -1.21984
lclavicle 4.29375e-014 -7.63333e-014
lhumerus 38.7784 -23.414 57.5849
lradius 47.6542
lwrist -15.8428
lhand -39.4003 55.889
lfingers 7.12502
lthumb -12.3896 85.5019
rfemur -28.7855 -3.02797 19.0312
rtibia 28.8079
rfoot -13.6973 -10.4479
rtoes -7.94585
lfemur -12.7899 3.53244 -16.9949
ltibia 8.19185
lfoot -5.7028 -1.20857
ltoes -11.0026
136
root 20.5469 18.5635 3.96639 -6.24502 -83.0875 21.235
lowerback 11.1539 -0.0927143 1.38998
upperback 5.33506 -0.17063 4.11784
thorax -0.674626 -0.219232 3.51767
lowerneck -15.4091 -2.40026 -9.02053
upperneck 35.9654 -5.40047 8.79573
head 15.7938 -2.67354 4.34267
rclavicle -7.15625e-015 -1.11319e-014
rhumerus 47.6274 24.9549 -37.9271
rradius 54.588
rwrist 4.19623
rhand -34.1553 28.6871
rfingers 7.12502
rthumb -7.32948 -1.16596
lclavicle -7.15625e-015 -1.11319e-014
lhumerus 41.9338 -26.7387 55.5427
lradius 48.4942
lwrist -15.7738
lhand -38.776 55.6771
lfingers 7.12502
lthumb -11.7876 85.3254
rfemur -28.7283 -3.11911 18.5562
rtibia 28.7424
rfoot -13.6112 -10.4477
rtoes -7.93826
lfemur -12.5402 3.46901 -17.5018
ltibia 7.8152
lfoot -5.95305 -1.10574
ltoes -7.75969
137
root 20.5526 18.5635 4.00695 -6.77366 -83.0247 21.7104
lowerback 11.263 0.856107 2.07181
upperback 5.4783 1.14414 3.33148
thorax -0.622634 0.461354 2.15826
lowerneck -15.7713 -3.21681 -6.68528
upperneck 35.7413 -7.26883 8.61835
head 15.9107 -3.12686 3.49014
rclavicle -1.03368e-014 -6.36111e-015
rhumerus 44.5155 22.3672 -39.0565
rradius 55.1074
rwrist 4.74889
rhand -34.2432 28.3948
rfingers 7.12502
rthumb -7.41437 -1.45528
lclavicle -1.03368e-014 -6.36111e-015
lhumerus 44.8033 -29.6302 54.0078
lradius 48.885
lwrist -16.1724
lhand -38.4187 55.1607
lfingers 7.12502
lthumb -11.4431 84.8284
rfemur -28.6386 -3.27185 18.3521
rtibia 28.703
rfoot -13.5487 -10.4189
rtoes -8.18836
lfemur -12.2209 3.38462 -17.7983
ltibia 7.31247
lfoot -5.74848 -0.970125
ltoes -9.28208
138
root 20.554 18.5626 4.03931 -5.43621 -83.1731 20.3725
lowerback 11.1735 0.0474433 1.47768
upperback 5.5107 0.00746749 4.03641
thorax -0.51122 -0.132237 3.36167
lowerneck -15.6378 -2.35496 -8.08845
upperneck 35.8297 -5.43267 8.40595
head 15.7377 -2.59509 3.98903
rclavicle -5.56597e-015 -3.02153e-014
rhumerus 47.0945 24.1956 -38.5097
rradius 55.0686
rwrist 5.30574
rhand -34.0003 28.0991
rfingers 7.12502
rthumb -7.17982 -1.7591
lclavicle -5.56597e-015 -3.02153e-014
lhumerus 42.3127 -27.3575 56.7032
lradius 48.5328
lwrist -18.1602
lhand -38.1287 55.7505
lfingers 7.12502
lthumb -11.1634 85.4335
rfemur -28.6494 -3.30995 18.5022
rtibia 28.6735
rfoot -13.5549 -10.3149
rtoes -9.23818
lfemur -11.9596 3.5079 -17.7818
ltibia 6.82577
lfoot -5.42917 -0.94912
ltoes -12.0219
139
root 20.5618 18.5638 4.07281 -4.8462 -83.2797 19.9142
lowerback 11.0589 -0.137036 1.31032
upperback 5.51937 -0.259203 4.25034
thorax -0.424346 -0.273725 3.71
lowerneck -15.481 -2.17475 -8.43212
upperneck 35.5979 -4.95871 8.24659
head 15.5301 -2.46246 4.05506
rclavicle 7.95139e-016 -3.18055e-015
rhumerus 47.6819 24.6005 -38.5813
rradius 55.133
rwrist 6.02396
rhand -33.9113 28.1203
rfingers 7.12502
rthumb -7.09396 -1.7408
lclavicle 7.95139e-016 -3.18055e-015
lhumerus 41.4353 -26.8011 56.1609
lradius 49.7812
lwrist -17.9259
lhand -37.8794 56.844
lfingers 7.12502
lthumb -10.9229 86.5399
rfemur -28.8293 -3.37297 18.5221
rtibia 28.6394
rfoot -13.629 -10.2406
rtoes -10.566
lfemur -11.8923 3.61449 -17.8487
ltibia 6.38704
lfoot -5.27198 -0.984149
ltoes -11.7208
140
root 20.5741 18.5643 4.11611 -5.21316 -83.2146 20.5239
lowerback 10.9489 -0.0766415 1.40874
upperback 5.4503 -0.165608 4.17477
thorax -0.442713 -0.220828 3.5633
lowerneck -15.4356 -2.31474 -8.50396
upperneck 35.4452 -5.18669 8.40577
head 15.482 -2.54251 4.09126
rclavicle 2.38542e-015 -1.90833e-014
rhumerus 47.1352 24.4083 -38.2961
rradius 55.7497
rwrist 6.28757
rhand -34.0779 28.1715
rfingers 7.12502
rthumb -7.25472 -1.68413
lclavicle 2.38542e-015 -1.90833e-014
lhumerus 41.4249 -27.2159 56.6179
lradius 50.1122
lwrist -18.925
lhand -37.7969 57.8539
lfingers 7.12502
lthumb -10.8434 87.5539
rfemur -29.099 -3.39507 18.2666
rtibia 28.6012
rfoot -13.611 -10.2904
rtoes -10.8139
lfemur -11.9315 3.55621 -18.1008
ltibia 5.90244
lfoot -5.08503 -0.98418
ltoes -10.0956
141
root 20.5832 18.5662 4.15856 -5.74359 -83.2308 21.1458
lowerback 10.9384 -0.0464381 1.28713
upperback 5.48855 -0.1411 4.22133
thorax -0.397949 -0.212823 3.67809
lowerneck -15.5395 -2.40474 -8.61725
upperneck 35.3283 -5.25782 8.42483
head 15.464 -2.57696 4.10309
rclavicle -2.62396e-014 -2.38542e-014
rhumerus 46.954 24.3109 -38.1567
rradius 56.1976
rwrist 6.51328
rhand -34.3986 27.8564
rfingers 7.12502
rthumb -7.56434 -1.98838
lclavicle -2.62396e-014 -2.38542e-014
lhumerus 41.4369 -27.3402 57.0646
lradius 50.3772
lwrist -19.876
lhand -37.4254 58.4101
lfingers 7.12502
lthumb -10.485 88.1286
rfemur -29.1653 -3.18767 17.9564
rtibia 28.5625
rfoot -13.5533 -10.2878
rtoes -10.0996
lfemur -11.7461 3.57566 -18.3355
ltibia 5.36856
lfoot -4.90989 -0.975044
ltoes -10.9123
142
root 20.5928 18.569 4.19433 -4.90903 -83.5013 20.1975
lowerback 11.1084 0.0306053 1.23544
upperback 5.63711 -0.0562151 4.34676
thorax -0.338947 -0.180143 3.83112
lowerneck -15.6596 -2.41859 -8.487
upperneck 35.1597 -5.15844 8.12762
head 15.3834 -2.54496 3.96077
rclavicle 8.74653e-015 1.74931e-014
rhumerus 47.0766 24.226 -37.5007
rradius 56.8028
rwrist 6.17954
rhand -34.5983 27.7966
rfingers 7.12502
rthumb -7.75704 -2.04111
lclavicle 8.74653e-015 1.74931e-014
lhumerus 41.3882 -27.2485 57.0573
lradius 51.0116
lwrist -20.3854
lhand -37.1895 58.1673
lfingers 7.12502
lthumb -10.2575 87.8972
rfemur -29.0505 -3.04767 17.9869
rtibia 28.5221
rfoot -13.4555 -9.95966
rtoes -9.10303
lfemur -11.2475 3.84405 -18.282
ltibia 4.66164
lfoot -4.90022 -0.985545
ltoes -11.1264
143
root 20.603 18.5684 4.22878 -4.50227 -83.6922 19.7335
lowerback 11.3197 0.113642 1.3205
upperback 5.66988 0.0634351 4.34403
thorax -0.426062 -0.120761 3.76834
lowerneck -15.6779 -2.40069 -8.67726
upperneck 35.1021 -5.14432 8.36094
head 15.3725 -2.53173 4.09727
rclavicle 8.74653e-015 2.38542e-014
rhumerus 46.7642 23.8953 -37.0605
rradius 57.381
rwrist 6.67397
rhand -34.1759 28.754
rfingers 7.12502
rthumb -7.34936 -1.09835
lclavicle 8.74653e-015 2.38542e-014
lhumerus 41.2224 -27.4631 57.0954
lradius 51.7561
lwrist -21.0121
lhand -37.1157 58.725
lfingers 7.12502
lthumb -10.1863 88.4584
rfemur -28.9821 -2.95458 17.9474
rtibia 28.4208
rfoot -13.3718 -9.70508
rtoes -8.49269
lfemur -11.0209 4.03749 -18.297
ltibia 4.31869
lfoot -4.98859 -1.06212
ltoes -10.4652
144
root 20.6109 18.5676 4.26595 -6.40362 -83.7042 21.7005
lowerback 11.4594 0.171008 1.20381
upperback 5.59109 0.141449 4.23544
thorax -0.589466 -0.0785839 3.71253
lowerneck -15.5143 -2.3766 -8.71343
upperneck 35.0098 -5.15308 8.4988
head 15.2957 -2.52461 4.15805
rclavicle 7.95139e-016 4.77083e-015
rhumerus 46.386 24.1333 -36.6738
rradius 58.0437
rwrist 6.15661
rhand -34.6453 27.4741
rfingers 7.12502
rthumb -7.80248 -2.36192
lclavicle 7.95139e-016 4.77083e-015
lhumerus 41.0536 -27.8842 57.19
lradius 52.4403
lwrist -21.6621
lhand -37.0577 60.2158
lfingers 7.12502
lthumb -10.1304 89.9519
rfemur -28.9652 -2.75894 17.5286
rtibia 28.2316
rfoot -13.3321 -9.81119
rtoes -8.96267
lfemur -11.4277 4.06086 -18.6386
ltibia 4.98451
lfoot -5.3825 -1.19311
ltoes -10.7709
145
root 20.6158 18.5605 4.2978 -6.28073 -83.8834 21.6719
lowerback 11.538 0.171521 1.05988
upperback 5.52569 0.136163 4.24339
thorax -0.700695 -0.081843 3.80399
lowerneck -15.4053 -2.2553 -8.3216
upperneck 34.9586 -4.9477 8.09201
head 15.1924 -2.44037 3.94371
rclavicle 4.77083e-015 -1.27222e-014
rhumerus 46.1918 24.3975 -36.667
rradius 58.5395
rwrist 6.58302
rhand -34.9866 26.961
rfingers 7.12502
rthumb -8.13186 -2.86252
lclavicle 4.77083e-015 -1.27222e-014
lhumerus 40.7076 -27.8799 57.4763
lradius 52.9301
lwrist -22.3648
lhand -36.9987 60.986
lfingers 7.12502
lthumb -10.0734 269.275
rfemur -28.9532 -2.66372 17.4969
rtibia 28.0198
rfoot -13.1187 -9.76269
rtoes -10.151
lfemur -11.9569 4.23966 -18.6936
ltibia 5.85905
lfoot -6.00464 -1.29462
ltoes -9.27688
